<svg width="16" height="16" viewBox="0 0 16 16" fill="none" xmlns="http://www.w3.org/2000/svg">
<path d="M7.36598 1.95122C7.56598 1.33722 8.43465 1.33722 8.63132 1.95122L9.34465 4.14589C9.38823 4.27955 9.47295 4.39601 9.5867 4.47863C9.70045 4.56124 9.8374 4.60579 9.97798 4.60589H12.286C12.932 4.60589 13.2 5.43256 12.678 5.81256L10.8113 7.16856C10.6973 7.25124 10.6125 7.3679 10.5689 7.50179C10.5253 7.63569 10.5252 7.77995 10.5686 7.91389L11.282 10.1086C11.482 10.7226 10.7787 11.2339 10.2553 10.8539L8.38865 9.49789C8.27479 9.41522 8.13769 9.37071 7.99698 9.37071C7.85628 9.37071 7.71918 9.41522 7.60532 9.49789L5.73865 10.8539C5.21598 11.2339 4.51332 10.7226 4.71265 10.1086L5.42598 7.91389C5.46943 7.77995 5.46935 7.63569 5.42576 7.50179C5.38217 7.3679 5.2973 7.25124 5.18332 7.16856L1.98665 5.81322C1.46465 5.43322 1.73332 4.60656 2.37865 4.60656H4.68598C4.82668 4.60659 4.96378 4.56211 5.07767 4.47949C5.19155 4.39686 5.27637 4.28032 5.31998 4.14656L6.03332 1.95189L7.36598 1.95122Z" stroke="#2563EB" stroke-width="1.33333" stroke-linecap="round" stroke-linejoin="round"/>
</svg>
