<svg width="16" height="16" viewBox="0 0 16 16" fill="none" xmlns="http://www.w3.org/2000/svg">
<path d="M9.15786 6.34214C8.59528 5.77972 7.83236 5.46378 7.03686 5.46378C6.24137 5.46378 5.47845 5.77972 4.91586 6.34214L1.91586 9.34214C1.62933 9.61888 1.40079 9.94991 1.24356 10.3159C1.08633 10.6819 1.00357 11.0756 1.00011 11.4739C0.996652 11.8723 1.07256 12.2673 1.2234 12.636C1.37424 13.0047 1.597 13.3396 1.87868 13.6213C2.16036 13.903 2.49531 14.1258 2.864 14.2766C3.23269 14.4274 3.62773 14.5033 4.02607 14.4999C4.42441 14.4964 4.81807 14.4137 5.18408 14.2564C5.55009 14.0992 5.88112 13.8707 6.15786 13.5841L6.98436 12.7584M6.41586 9.08414C6.97845 9.64655 7.74137 9.96249 8.53686 9.96249C9.33236 9.96249 10.0953 9.64655 10.6579 9.08414L13.6579 6.08414C14.2043 5.51833 14.5067 4.76052 14.4999 3.97393C14.4931 3.18734 14.1775 2.4349 13.6213 1.87868C13.0651 1.32246 12.3127 1.00695 11.5261 1.00011C10.7395 0.993278 9.98167 1.29566 9.41586 1.84214L8.59086 2.66714" stroke="black" stroke-width="2" stroke-linecap="round" stroke-linejoin="round"/>
</svg>
