<svg width="16" height="16" viewBox="0 0 16 16" fill="none" xmlns="http://www.w3.org/2000/svg">
<path d="M5.78971 8.89491C5.92438 8.62557 6.00038 8.32157 6.00038 8.00024C6.00038 7.67891 5.92438 7.37491 5.78971 7.10557M5.78971 8.89491C5.58818 9.29783 5.25651 9.62092 4.84844 9.81181C4.44037 10.0027 3.9798 10.0502 3.54134 9.94671C3.10288 9.84317 2.71222 9.59463 2.43265 9.24135C2.15308 8.88808 2.00098 8.45076 2.00098 8.00024C2.00098 7.54972 2.15308 7.1124 2.43265 6.75913C2.71222 6.40585 3.10288 6.15731 3.54134 6.05377C3.9798 5.95024 4.44037 5.99777 4.84844 6.18866C5.25651 6.37956 5.58818 6.70265 5.78971 7.10557M5.78971 8.89491L10.211 11.1056M5.78971 7.10557L10.211 4.89491M10.211 11.1056C9.97376 11.5801 9.93472 12.1295 10.1025 12.6329C10.2703 13.1362 10.6312 13.5523 11.1057 13.7896C11.5803 14.0269 12.1297 14.0659 12.633 13.8981C13.1363 13.7303 13.5524 13.3695 13.7897 12.8949C14.027 12.4203 14.066 11.871 13.8983 11.3676C13.7305 10.8643 13.3696 10.4482 12.895 10.2109C12.6601 10.0934 12.4042 10.0234 12.1422 10.0047C11.8801 9.98611 11.617 10.0193 11.3678 10.1024C10.8644 10.2701 10.4483 10.631 10.211 11.1056ZM10.211 4.89491C10.3285 5.12984 10.4911 5.33933 10.6896 5.51142C10.888 5.68351 11.1185 5.81483 11.3677 5.89788C11.6169 5.98092 11.88 6.01407 12.142 5.99543C12.404 5.97679 12.6598 5.90673 12.8947 5.78924C13.1296 5.67175 13.3391 5.50914 13.5112 5.31069C13.6833 5.11223 13.8146 4.88183 13.8977 4.63263C13.9807 4.38343 14.0139 4.12031 13.9952 3.8583C13.9766 3.59628 13.9065 3.34051 13.789 3.10557C13.5518 2.6311 13.1357 2.27032 12.6324 2.1026C12.1291 1.93488 11.5798 1.97396 11.1054 2.21124C10.6309 2.44852 10.2701 2.86456 10.1024 3.36785C9.93469 3.87114 9.97376 4.42043 10.211 4.89491Z" stroke="#4B5563" stroke-width="1.33333" stroke-linecap="round" stroke-linejoin="round"/>
</svg>
