<svg width="12" height="14" viewBox="0 0 12 14" fill="none" xmlns="http://www.w3.org/2000/svg">
<path d="M3.33366 3.33341V8.66675C3.33366 9.02037 3.47413 9.35951 3.72418 9.60956C3.97423 9.85961 4.31337 10.0001 4.66699 10.0001H8.66699M3.33366 3.33341V2.00008C3.33366 1.64646 3.47413 1.30732 3.72418 1.05727C3.97423 0.807224 4.31337 0.666748 4.66699 0.666748H7.72433C7.90112 0.666786 8.07066 0.737048 8.19566 0.862081L11.1383 3.80475C11.2634 3.92974 11.3336 4.09928 11.3337 4.27608V8.66675C11.3337 9.02037 11.1932 9.35951 10.9431 9.60956C10.6931 9.85961 10.3539 10.0001 10.0003 10.0001H8.66699M3.33366 3.33341H2.00033C1.6467 3.33341 1.30756 3.47389 1.05752 3.72394C0.807468 3.97399 0.666992 4.31313 0.666992 4.66675V11.3334C0.666992 11.687 0.807468 12.0262 1.05752 12.2762C1.30756 12.5263 1.6467 12.6667 2.00033 12.6667H7.33366C7.68728 12.6667 8.02642 12.5263 8.27647 12.2762C8.52652 12.0262 8.66699 11.687 8.66699 11.3334V10.0001" stroke="#6B7280" stroke-width="1.33333" stroke-linecap="round" stroke-linejoin="round"/>
</svg>
