<svg width="18" height="18" viewBox="0 0 18 18" fill="none" xmlns="http://www.w3.org/2000/svg">
<path d="M6.75 14.25V9.75C6.75 9.35218 6.59196 8.97064 6.31066 8.68934C6.02936 8.40804 5.64782 8.25 5.25 8.25H3.75C3.35218 8.25 2.97064 8.40804 2.68934 8.68934C2.40804 8.97064 2.25 9.35218 2.25 9.75V14.25C2.25 14.6478 2.40804 15.0294 2.68934 15.3107C2.97064 15.592 3.35218 15.75 3.75 15.75H5.25C5.64782 15.75 6.02936 15.592 6.31066 15.3107C6.59196 15.0294 6.75 14.6478 6.75 14.25ZM6.75 14.25V6.75C6.75 6.35218 6.90804 5.97064 7.18934 5.68934C7.47064 5.40804 7.85218 5.25 8.25 5.25H9.75C10.1478 5.25 10.5294 5.40804 10.8107 5.68934C11.092 5.97064 11.25 6.35218 11.25 6.75V14.25M6.75 14.25C6.75 14.6478 6.90804 15.0294 7.18934 15.3107C7.47064 15.592 7.85218 15.75 8.25 15.75H9.75C10.1478 15.75 10.5294 15.592 10.8107 15.3107C11.092 15.0294 11.25 14.6478 11.25 14.25M11.25 14.25V3.75C11.25 3.35218 11.408 2.97064 11.6893 2.68934C11.9706 2.40804 12.3522 2.25 12.75 2.25H14.25C14.6478 2.25 15.0294 2.40804 15.3107 2.68934C15.592 2.97064 15.75 3.35218 15.75 3.75V14.25C15.75 14.6478 15.592 15.0294 15.3107 15.3107C15.0294 15.592 14.6478 15.75 14.25 15.75H12.75C12.3522 15.75 11.9706 15.592 11.6893 15.3107C11.408 15.0294 11.25 14.6478 11.25 14.25Z" stroke="black" stroke-width="2" stroke-linecap="round" stroke-linejoin="round"/>
</svg>
