<svg width="16" height="16" viewBox="0 0 16 16" fill="none" xmlns="http://www.w3.org/2000/svg">
<path d="M6.49375 1.98775C6.81325 0.67075 8.68675 0.67075 9.00625 1.98775C9.05419 2.1856 9.14817 2.36933 9.28053 2.524C9.4129 2.67867 9.57992 2.79989 9.76799 2.87781C9.95606 2.95573 10.1599 2.98814 10.3628 2.9724C10.5658 2.95667 10.7622 2.89323 10.936 2.78725C12.0932 2.08225 13.4185 3.40675 12.7135 4.56475C12.6077 4.73849 12.5443 4.93475 12.5286 5.13758C12.5129 5.34041 12.5453 5.54408 12.6231 5.73203C12.701 5.91999 12.8221 6.08693 12.9765 6.21929C13.131 6.35164 13.3146 6.44568 13.5123 6.49375C14.8293 6.81325 14.8293 8.68675 13.5123 9.00625C13.3144 9.05419 13.1307 9.14817 12.976 9.28053C12.8213 9.4129 12.7001 9.57992 12.6222 9.76799C12.5443 9.95606 12.5119 10.1599 12.5276 10.3628C12.5433 10.5658 12.6068 10.7622 12.7128 10.936C13.4178 12.0932 12.0932 13.4185 10.9352 12.7135C10.7615 12.6077 10.5652 12.5443 10.3624 12.5286C10.1596 12.5129 9.95592 12.5453 9.76797 12.6231C9.58001 12.701 9.41307 12.8221 9.28071 12.9765C9.14836 13.131 9.05432 13.3146 9.00625 13.5123C8.68675 14.8293 6.81325 14.8293 6.49375 13.5123C6.44581 13.3144 6.35183 13.1307 6.21947 12.976C6.0871 12.8213 5.92008 12.7001 5.73201 12.6222C5.54394 12.5443 5.34013 12.5119 5.13716 12.5276C4.9342 12.5433 4.73781 12.6068 4.564 12.7128C3.40675 13.4178 2.0815 12.0932 2.7865 10.9352C2.89233 10.7615 2.95566 10.5652 2.97136 10.3624C2.98706 10.1596 2.95468 9.95592 2.87685 9.76797C2.79903 9.58001 2.67795 9.41307 2.52345 9.28071C2.36896 9.14836 2.18542 9.05432 1.98775 9.00625C0.67075 8.68675 0.67075 6.81325 1.98775 6.49375C2.1856 6.44581 2.36933 6.35183 2.524 6.21947C2.67867 6.0871 2.79989 5.92008 2.87781 5.73201C2.95573 5.54394 2.98814 5.34013 2.9724 5.13716C2.95667 4.9342 2.89323 4.73781 2.78725 4.564C2.08225 3.40675 3.40675 2.0815 4.56475 2.7865C5.31175 3.2425 6.28675 2.839 6.49375 1.98775Z" stroke="black" stroke-width="2" stroke-linecap="round" stroke-linejoin="round"/>
<path d="M10 7.75C10 8.34674 9.76295 8.91903 9.34099 9.34099C8.91903 9.76295 8.34674 10 7.75 10C7.15326 10 6.58097 9.76295 6.15901 9.34099C5.73705 8.91903 5.5 8.34674 5.5 7.75C5.5 7.15326 5.73705 6.58097 6.15901 6.15901C6.58097 5.73705 7.15326 5.5 7.75 5.5C8.34674 5.5 8.91903 5.73705 9.34099 6.15901C9.76295 6.58097 10 7.15326 10 7.75Z" stroke="black" stroke-width="2" stroke-linecap="round" stroke-linejoin="round"/>
</svg>
