<svg width="20" height="20" viewBox="0 0 20 20" fill="none" xmlns="http://www.w3.org/2000/svg">
<g clip-path="url(#clip0_402_1768)">
<path d="M16.6666 5.83334H3.33329C2.41282 5.83334 1.66663 6.57954 1.66663 7.50001V15.8333C1.66663 16.7538 2.41282 17.5 3.33329 17.5H16.6666C17.5871 17.5 18.3333 16.7538 18.3333 15.8333V7.50001C18.3333 6.57954 17.5871 5.83334 16.6666 5.83334Z" stroke="#F43F5E"/>
<path d="M13.3333 17.5V4.16667C13.3333 3.72464 13.1577 3.30072 12.8451 2.98816C12.5326 2.67559 12.1087 2.5 11.6666 2.5H8.33329C7.89127 2.5 7.46734 2.67559 7.15478 2.98816C6.84222 3.30072 6.66663 3.72464 6.66663 4.16667V17.5" stroke="#F43F5E"/>
</g>
<defs>
<clipPath id="clip0_402_1768">
<rect width="20" height="20" fill="white"/>
</clipPath>
</defs>
</svg>
