<svg width="20" height="20" viewBox="0 0 20 20" fill="none" xmlns="http://www.w3.org/2000/svg">
<g clip-path="url(#clip0_402_1818)">
<path fill-rule="evenodd" clip-rule="evenodd" d="M9.99996 1.66669C5.39746 1.66669 1.66663 5.40335 1.66663 10.0142C1.66663 13.7017 4.05413 16.8309 7.36579 17.9342C7.78246 18.0109 7.93413 17.7534 7.93413 17.5317C7.93413 17.3342 7.92746 16.8084 7.92329 16.1125C5.60496 16.6167 5.11579 14.9934 5.11579 14.9934C4.73746 14.0284 4.19079 13.7717 4.19079 13.7717C3.43413 13.255 4.24829 13.265 4.24829 13.265C5.08413 13.3234 5.52413 14.125 5.52413 14.125C6.26746 15.4 7.47496 15.0317 7.94913 14.8184C8.02579 14.2792 8.24079 13.9117 8.47913 13.7034C6.62913 13.4925 4.68329 12.7759 4.68329 9.57752C4.68329 8.66669 5.00829 7.92085 5.54079 7.33752C5.45496 7.12669 5.16913 6.27752 5.62246 5.12919C5.62246 5.12919 6.32246 4.90419 7.91413 5.98419C8.59393 5.79878 9.29532 5.70435 9.99996 5.70335C10.7083 5.70669 11.4208 5.79919 12.0866 5.98419C13.6775 4.90419 14.3758 5.12835 14.3758 5.12835C14.8308 6.27752 14.5441 7.12669 14.4591 7.33752C14.9925 7.92085 15.3158 8.66669 15.3158 9.57752C15.3158 12.7842 13.3666 13.49 11.5108 13.6967C11.81 13.9542 12.0758 14.4634 12.0758 15.2425C12.0758 16.3575 12.0658 17.2584 12.0658 17.5317C12.0658 17.755 12.2158 18.015 12.6391 17.9334C14.2985 17.3768 15.7411 16.3128 16.7629 14.8917C17.7846 13.4707 18.334 11.7645 18.3333 10.0142C18.3333 5.40335 14.6016 1.66669 9.99996 1.66669Z" fill="#4F46E5"/>
</g>
<defs>
<clipPath id="clip0_402_1818">
<rect width="20" height="20" fill="white"/>
</clipPath>
</defs>
</svg>
