<svg width="16" height="16" viewBox="0 0 16 16" fill="none" xmlns="http://www.w3.org/2000/svg">
<g clip-path="url(#clip0_402_1706)">
<path d="M6.00004 8.66666C6.36823 8.66666 6.66671 8.36818 6.66671 7.99999C6.66671 7.63181 6.36823 7.33333 6.00004 7.33333C5.63185 7.33333 5.33337 7.63181 5.33337 7.99999C5.33337 8.36818 5.63185 8.66666 6.00004 8.66666Z" stroke="#D1D5DB" stroke-width="1.33333" stroke-linecap="round" stroke-linejoin="round"/>
<path d="M6.00004 4.00001C6.36823 4.00001 6.66671 3.70153 6.66671 3.33334C6.66671 2.96515 6.36823 2.66667 6.00004 2.66667C5.63185 2.66667 5.33337 2.96515 5.33337 3.33334C5.33337 3.70153 5.63185 4.00001 6.00004 4.00001Z" stroke="#D1D5DB" stroke-width="1.33333" stroke-linecap="round" stroke-linejoin="round"/>
<path d="M6.00004 13.3333C6.36823 13.3333 6.66671 13.0349 6.66671 12.6667C6.66671 12.2985 6.36823 12 6.00004 12C5.63185 12 5.33337 12.2985 5.33337 12.6667C5.33337 13.0349 5.63185 13.3333 6.00004 13.3333Z" stroke="#D1D5DB" stroke-width="1.33333" stroke-linecap="round" stroke-linejoin="round"/>
<path d="M10 8.66666C10.3682 8.66666 10.6667 8.36818 10.6667 7.99999C10.6667 7.63181 10.3682 7.33333 10 7.33333C9.63185 7.33333 9.33337 7.63181 9.33337 7.99999C9.33337 8.36818 9.63185 8.66666 10 8.66666Z" stroke="#D1D5DB" stroke-width="1.33333" stroke-linecap="round" stroke-linejoin="round"/>
<path d="M10 4.00001C10.3682 4.00001 10.6667 3.70153 10.6667 3.33334C10.6667 2.96515 10.3682 2.66667 10 2.66667C9.63185 2.66667 9.33337 2.96515 9.33337 3.33334C9.33337 3.70153 9.63185 4.00001 10 4.00001Z" stroke="#D1D5DB" stroke-width="1.33333" stroke-linecap="round" stroke-linejoin="round"/>
<path d="M10 13.3333C10.3682 13.3333 10.6667 13.0349 10.6667 12.6667C10.6667 12.2985 10.3682 12 10 12C9.63185 12 9.33337 12.2985 9.33337 12.6667C9.33337 13.0349 9.63185 13.3333 10 13.3333Z" stroke="#D1D5DB" stroke-width="1.33333" stroke-linecap="round" stroke-linejoin="round"/>
</g>
<defs>
<clipPath id="clip0_402_1706">
<rect width="16" height="16" fill="white"/>
</clipPath>
</defs>
</svg>
